<?xml version="1.0" standalone="no"?>
<!DOCTYPE svg PUBLIC "-//W3C//DTD SVG 20010904//EN"
 "http://www.w3.org/TR/2001/REC-SVG-20010904/DTD/svg10.dtd">
<svg version="1.0" xmlns="http://www.w3.org/2000/svg"
 width="736.000000pt" height="744.000000pt" viewBox="0 0 736.000000 744.000000"
 preserveAspectRatio="xMidYMid meet">

<g transform="translate(0.000000,744.000000) scale(0.100000,-0.100000)"
fill="#000000" stroke="none">
<path d="M2662 5305 c2 -3 40 -14 83 -25 155 -40 281 -116 400 -242 62 -65 86
-102 130 -192 68 -141 85 -203 92 -347 12 -245 -72 -457 -250 -631 -73 -72
-65 -74 33 -8 162 110 280 264 341 445 21 61 24 89 24 220 0 120 -4 162 -19
210 -98 307 -358 520 -689 564 -83 12 -154 14 -145 6z"/>
<path d="M3280 5256 c0 -3 28 -20 62 -38 70 -37 202 -157 261 -237 58 -78 115
-208 138 -313 53 -237 -21 -518 -187 -712 -76 -89 -145 -143 -251 -198 -70
-36 -74 -39 -38 -33 221 37 461 217 565 425 63 127 75 182 75 350 0 144 -2
161 -28 234 -85 241 -275 423 -526 505 -70 23 -71 23 -71 17z"/>
<path d="M2135 5101 c-124 -34 -285 -104 -271 -118 2 -3 13 0 23 5 39 21 182
43 278 43 263 1 491 -111 657 -320 97 -121 146 -239 168 -399 18 -131 -8 -318
-60 -424 -11 -22 -10 -22 11 2 30 34 95 173 115 246 24 88 30 292 10 382 -29
138 -98 264 -205 376 -100 104 -177 152 -316 198 -91 30 -315 35 -410 9z"/>
<path d="M1892 4929 c-84 -14 -221 -70 -302 -124 -92 -60 -202 -171 -254 -256
l-39 -64 80 75 c162 152 355 229 571 230 218 0 418 -76 575 -220 143 -131 219
-278 255 -490 9 -52 9 -49 11 53 0 63 -5 139 -14 182 -86 413 -472 682 -883
614z"/>
<path d="M1743 4600 c-243 -26 -470 -184 -591 -410 -48 -90 -92 -235 -92 -305
l0 -50 33 82 c83 203 234 361 440 459 215 101 480 101 695 -1 121 -57 252
-172 322 -281 42 -66 38 -39 -9 59 -142 295 -475 482 -798 447z"/>
<path d="M1745 4240 c-86 -13 -167 -40 -258 -88 -336 -176 -478 -607 -326
-990 28 -69 74 -151 54 -97 -38 110 -44 348 -11 470 38 137 109 255 218 363
90 88 150 132 242 176 122 57 192 71 361 71 146 -1 153 -2 253 -37 56 -19 102
-34 102 -33 0 2 -31 21 -69 44 -179 106 -378 149 -566 121z"/>
<path d="M1934 3940 c-283 -64 -499 -263 -585 -540 -20 -63 -24 -96 -24 -210
1 -127 3 -141 34 -233 44 -127 126 -252 225 -343 42 -38 93 -79 116 -92 l40
-23 -63 78 c-80 100 -120 172 -157 282 -63 187 -63 359 -1 537 44 124 102 217
191 304 125 122 282 202 454 231 52 9 72 16 59 20 -35 14 -207 7 -289 -11z"/>
<path d="M2235 3740 c-256 -67 -450 -246 -529 -486 -23 -69 -34 -211 -24 -298
28 -235 178 -438 411 -556 122 -62 153 -65 67 -6 -143 95 -257 252 -312 426
-31 100 -33 311 -4 405 73 236 239 422 454 511 70 29 38 31 -63 4z"/>
<path d="M4195 3257 c-49 -23 -70 -54 -70 -104 0 -63 38 -95 137 -118 87 -19
118 -44 118 -92 0 -19 -4 -43 -10 -53 -21 -39 -123 -52 -201 -25 -34 12 -44
13 -51 3 -4 -7 -8 -16 -8 -19 0 -14 60 -32 123 -37 119 -9 197 41 197 126 0
73 -55 122 -152 137 -25 4 -60 15 -77 26 -25 15 -31 25 -31 53 0 67 88 98 174
62 32 -13 56 -7 56 14 0 29 -157 49 -205 27z"/>
<path d="M5108 3256 c-111 -41 -169 -135 -153 -250 8 -63 24 -94 74 -139 83
-75 227 -78 314 -6 123 101 108 295 -29 375 -55 32 -150 42 -206 20z m192 -60
c90 -60 107 -207 32 -289 -47 -52 -154 -73 -225 -43 -142 59 -144 282 -3 347
59 28 141 22 196 -15z"/>
<path d="M2480 3041 c0 -214 1 -221 20 -221 19 0 20 8 22 192 l3 192 153 -192
c137 -171 157 -192 183 -192 l29 0 -2 218 c-3 217 -3 217 -25 220 l-23 3 0
-193 c-1 -191 -1 -193 -19 -168 -11 14 -79 99 -153 190 -106 131 -139 166
-161 168 l-27 3 0 -220z"/>
<path d="M2980 3040 l0 -220 25 0 25 0 0 105 0 106 133 -3 132 -3 3 -102 c2
-95 4 -103 22 -103 19 0 20 8 20 220 0 213 -1 220 -20 220 -19 0 -20 -7 -20
-95 l0 -95 -135 0 -135 0 0 95 c0 95 0 95 -25 95 l-25 0 0 -220z"/>
<path d="M3440 3041 l0 -221 106 0 c123 0 168 11 220 53 75 62 96 175 50 274
-19 39 -35 58 -72 79 -45 26 -58 29 -176 32 l-128 4 0 -221z m281 151 c51 -31
72 -84 67 -166 -5 -78 -25 -111 -88 -143 -35 -18 -61 -23 -127 -23 l-82 0 -3
176 c-2 97 -1 178 2 181 3 3 48 3 100 1 77 -3 102 -8 131 -26z"/>
<path d="M4510 3040 l0 -220 25 0 25 0 0 105 0 106 133 -3 132 -3 3 -102 c2
-95 4 -103 22 -103 19 0 20 8 20 220 0 213 -1 220 -20 220 -19 0 -20 -7 -20
-95 l0 -95 -135 0 -135 0 0 95 c0 95 0 95 -25 95 l-25 0 0 -220z"/>
<path d="M5508 3254 c-2 -5 -5 -105 -7 -221 l-2 -213 25 0 c25 0 25 2 28 83
l3 82 91 5 c127 7 177 45 177 135 0 94 -51 127 -204 133 -59 2 -108 0 -111 -4z
m222 -52 c65 -32 65 -126 0 -159 -14 -7 -60 -13 -102 -13 l-78 0 0 95 0 95 73
0 c48 0 83 -6 107 -18z"/>
</g>
</svg>
