<?xml version="1.0" standalone="no"?>
<!DOCTYPE svg PUBLIC "-//W3C//DTD SVG 20010904//EN"
 "http://www.w3.org/TR/2001/REC-SVG-20010904/DTD/svg10.dtd">
<svg version="1.0" xmlns="http://www.w3.org/2000/svg"
 width="516.000000pt" height="484.000000pt" viewBox="0 0 516.000000 484.000000"
 preserveAspectRatio="xMidYMid meet">

<g transform="translate(0.000000,484.000000) scale(0.100000,-0.100000)"
fill="#000000" stroke="none">
<path d="M3490 4675 c0 -21 27 -30 45 -15 19 16 19 30 -1 30 -8 0 -12 -4 -9
-10 3 -5 1 -10 -4 -10 -6 0 -11 5 -11 10 0 6 -4 10 -10 10 -5 0 -10 -7 -10
-15z"/>
<path d="M3435 4660 c-10 -17 5 -52 21 -46 7 3 16 1 19 -4 3 -4 -1 -11 -7 -13
-8 -4 -7 -6 4 -6 26 -1 30 15 13 49 -15 30 -38 39 -50 20z m35 -20 c0 -5 -7
-10 -15 -10 -8 0 -15 5 -15 10 0 6 7 10 15 10 8 0 15 -4 15 -10z"/>
<path d="M3225 4650 c-3 -6 1 -7 9 -4 18 7 21 14 7 14 -6 0 -13 -4 -16 -10z"/>
<path d="M3310 4620 c0 -13 22 -53 35 -62 19 -14 17 1 -5 36 -22 37 -30 44
-30 26z"/>
<path d="M3365 4620 c-10 -17 20 -44 40 -36 9 3 15 14 13 23 -4 21 -43 30 -53
13z m32 -16 c-3 -3 -12 -4 -19 -1 -8 3 -5 6 6 6 11 1 17 -2 13 -5z"/>
<path d="M3890 4620 c8 -5 20 -10 25 -10 6 0 3 5 -5 10 -8 5 -19 10 -25 10 -5
0 -3 -5 5 -10z"/>
<path d="M3274 4565 c-9 -21 3 -45 21 -45 21 0 30 27 15 45 -16 19 -29 19 -36
0z m34 -16 c-2 -6 -8 -10 -13 -10 -5 0 -11 4 -13 10 -2 6 4 11 13 11 9 0 15
-5 13 -11z"/>
<path d="M3190 4545 c0 -17 25 -65 33 -65 48 1 45 55 -3 62 -17 3 -30 4 -30 3z
m50 -41 c0 -8 -4 -12 -10 -9 -5 3 -10 10 -10 16 0 5 5 9 10 9 6 0 10 -7 10
-16z"/>
<path d="M4010 4542 c0 -2 8 -17 17 -33 13 -22 22 -27 38 -23 28 9 29 11 18
36 -7 17 -18 23 -42 23 -17 0 -31 -2 -31 -3z m46 -11 c-4 -5 0 -11 6 -14 7 -2
10 -8 5 -12 -10 -12 -31 11 -23 24 4 6 9 11 12 11 3 0 3 -4 0 -9z"/>
<path d="M2765 4519 c-195 -11 -313 -40 -460 -113 -162 -82 -264 -167 -399
-336 -6 -8 -27 -28 -46 -44 -19 -15 -29 -25 -22 -21 16 8 16 0 -1 -17 -7 -7
-23 -35 -37 -62 -14 -26 -34 -52 -45 -57 -11 -4 -121 -30 -245 -58 -186 -41
-245 -58 -340 -101 -165 -74 -236 -115 -315 -184 -73 -63 -85 -76 -149 -160
-21 -28 -43 -50 -48 -48 -5 1 -6 -3 -3 -9 4 -6 -1 -23 -12 -37 -10 -15 -27
-46 -37 -69 -10 -23 -23 -40 -29 -36 -6 3 -7 1 -3 -5 3 -6 -2 -34 -13 -64 -21
-60 -39 -123 -44 -153 -2 -13 -9 -19 -20 -17 -19 3 -24 -24 -5 -30 9 -3 11
-24 8 -69 -20 -285 35 -483 210 -755 11 -18 11 -27 0 -54 -12 -29 -16 -31 -48
-25 -25 5 -32 3 -27 -6 5 -7 -1 -19 -14 -28 l-22 -17 20 -25 c11 -13 20 -19
21 -13 0 5 -5 15 -11 21 -13 13 33 48 53 40 8 -3 6 -6 -6 -6 -13 -1 -16 -6
-12 -18 8 -19 -24 -154 -35 -148 -3 3 -4 -8 -2 -23 2 -15 5 -88 6 -162 4 -187
32 -313 102 -465 138 -298 400 -511 723 -586 73 -17 133 -21 382 -26 l295 -5
95 -97 c161 -164 291 -248 478 -310 147 -49 291 -60 484 -37 199 24 299 61
458 173 71 50 235 213 245 242 4 15 20 20 83 25 98 9 105 10 120 20 20 12 50
-3 56 -29 4 -14 11 -25 16 -25 15 0 12 17 -6 45 -15 23 -15 25 2 31 11 3 31
10 46 16 15 5 32 7 39 2 7 -4 10 -3 6 2 -6 10 32 37 164 117 265 161 448 463
477 787 20 227 -25 433 -139 635 -28 50 -64 115 -81 145 -17 30 -36 62 -42 70
-26 33 -66 119 -66 141 0 13 31 123 69 244 78 252 94 330 94 470 0 122 -16
221 -54 339 -16 49 -29 95 -29 102 0 7 -9 28 -20 47 -12 20 -18 42 -14 53 4
14 3 15 -4 6 -7 -11 -10 -10 -16 3 -3 9 -3 22 1 27 3 7 1 8 -5 4 -6 -4 -27 17
-51 51 -41 61 -200 223 -217 223 -4 0 -25 15 -48 34 -36 29 -141 86 -159 86
-4 0 -30 11 -59 24 -113 52 -307 79 -463 66 l-99 -8 -33 28 c-49 44 -172 123
-223 145 -51 22 -60 31 -60 63 0 12 -4 22 -8 22 -17 0 -21 -13 -11 -31 11 -22
-2 -26 -23 -6 -7 6 -24 13 -38 13 -14 1 -50 9 -80 17 -86 23 -96 24 -255 16z
m132 -1964 c28 -8 62 -24 75 -34 21 -18 21 -21 8 -35 -14 -14 -20 -13 -64 9
-82 42 -186 30 -186 -20 0 -25 31 -45 103 -66 133 -40 177 -72 177 -129 0 -78
-56 -114 -181 -115 -70 0 -95 4 -137 24 -53 25 -59 34 -42 61 7 12 15 11 50
-9 56 -31 159 -40 195 -17 31 20 32 50 3 70 -12 9 -63 30 -114 46 -110 37
-144 65 -144 120 0 89 123 135 257 95z m-1601 -145 l99 -150 3 150 3 150 39 0
c29 0 40 -4 41 -15 0 -8 0 -46 0 -85 0 -38 0 -119 0 -180 l-1 -110 -52 0 -53
0 -100 153 -100 152 -3 -152 -3 -153 -39 0 -40 0 0 195 0 195 54 0 54 0 98
-150z m342 58 l3 -88 104 0 104 0 3 88 3 87 43 3 42 3 0 -196 0 -196 -42 3
-43 3 -3 83 -3 82 -104 0 -104 0 -3 -82 -3 -83 -40 0 -40 0 -3 180 c-1 98 0
185 3 193 3 9 18 12 42 10 l38 -3 3 -87z m677 62 c129 -67 129 -263 0 -330
-44 -22 -64 -25 -177 -29 l-128 -3 0 197 0 197 128 -3 c113 -4 133 -7 177 -29z
m827 -17 l3 -48 76 -5 c128 -9 153 -44 147 -200 l-3 -85 -40 0 -40 0 -3 107
c-2 101 -4 109 -27 124 -14 9 -40 14 -67 12 l-43 -3 -3 -123 -3 -123 -37 3
-37 3 -3 180 c-1 98 0 185 2 192 3 7 21 13 40 13 35 0 35 -1 38 -47z m538 -62
c49 -26 74 -73 74 -138 0 -64 -22 -99 -84 -130 -116 -60 -250 11 -250 132 0
53 27 104 69 132 44 30 140 32 191 4z m370 -9 c45 -22 80 -75 80 -121 0 -85
-66 -142 -171 -149 l-58 -4 -3 -47 -3 -46 -40 0 -40 0 -3 193 -2 192 102 0
c78 0 111 -4 138 -18z"/>
<path d="M2100 2365 l0 -145 69 0 c55 0 74 4 96 22 51 40 69 124 41 192 -24
56 -59 76 -137 76 l-69 0 0 -145z"/>
<path d="M3552 2424 c-21 -10 -42 -61 -42 -106 0 -54 18 -89 52 -106 80 -38
143 93 85 179 -22 33 -61 47 -95 33z"/>
<path d="M3900 2320 l0 -100 48 0 c57 0 80 19 89 73 13 80 -22 127 -92 127
l-45 0 0 -100z"/>
<path d="M3993 4502 c-7 -4 -10 -17 -6 -30 8 -32 20 -27 20 8 0 17 -1 30 -1
30 -1 0 -6 -4 -13 -8z"/>
<path d="M3953 4463 c5 -24 -18 -33 -26 -10 -2 6 -7 9 -10 6 -4 -3 0 -15 9
-27 13 -18 18 -20 34 -9 24 14 24 18 4 43 -15 19 -15 18 -11 -3z"/>
<path d="M3860 4437 c0 -8 9 -22 20 -32 16 -14 23 -16 32 -7 9 9 8 12 -5 12
-10 0 -17 8 -17 20 0 11 -7 20 -15 20 -8 0 -15 -6 -15 -13z"/>
<path d="M4240 4416 c0 -2 7 -7 16 -10 8 -3 12 -2 9 4 -6 10 -25 14 -25 6z"/>
<path d="M4395 4230 c-3 -6 1 -7 9 -4 18 7 21 14 7 14 -6 0 -13 -4 -16 -10z"/>
<path d="M4405 4210 c-8 -13 5 -13 25 0 13 8 13 10 -2 10 -9 0 -20 -4 -23 -10z"/>
<path d="M4323 4189 c-18 -18 -4 -50 21 -47 15 2 21 10 21 28 0 27 -23 38 -42
19z m27 -19 c0 -5 -4 -10 -10 -10 -5 0 -10 5 -10 10 0 6 5 10 10 10 6 0 10 -4
10 -10z"/>
<path d="M4259 4154 c-18 -22 1 -50 32 -46 21 4 22 2 9 -14 -13 -15 -13 -17 0
-12 22 7 24 35 6 63 -19 29 -29 31 -47 9z m27 -31 c-10 -10 -19 5 -10 18 6 11
8 11 12 0 2 -7 1 -15 -2 -18z"/>
<path d="M4500 4105 c0 -5 5 -17 10 -25 5 -8 10 -10 10 -5 0 6 -5 17 -10 25
-5 8 -10 11 -10 5z"/>
<path d="M4530 4038 c0 -9 7 -22 17 -29 15 -13 15 -12 3 11 -17 34 -20 36 -20
18z"/>
<path d="M1513 3855 c0 -8 4 -12 9 -9 5 3 6 10 3 15 -9 13 -12 11 -12 -6z"/>
<path d="M4601 3860 c0 -8 4 -22 9 -30 12 -18 12 -2 0 25 -6 13 -9 15 -9 5z"/>
<path d="M703 3415 c0 -8 4 -12 9 -9 5 3 6 10 3 15 -9 13 -12 11 -12 -6z"/>
<path d="M420 3101 c0 -6 4 -13 10 -16 6 -3 7 1 4 9 -7 18 -14 21 -14 7z"/>
<path d="M371 3023 c-10 -26 -10 -27 4 -9 8 11 15 23 15 28 0 15 -7 8 -19 -19z"/>
<path d="M271 2484 c0 -11 3 -14 6 -6 3 7 2 16 -1 19 -3 4 -6 -2 -5 -13z"/>
<path d="M480 2399 c0 -5 9 -19 19 -30 15 -17 23 -19 38 -10 16 10 16 10 -5
11 -18 0 -22 4 -18 18 4 13 0 18 -14 19 -11 1 -20 -3 -20 -8z"/>
<path d="M367 2125 c-4 -8 -3 -16 1 -19 4 -3 9 4 9 15 2 23 -3 25 -10 4z"/>
<path d="M380 2085 c0 -5 5 -17 10 -25 5 -8 10 -10 10 -5 0 6 -5 17 -10 25 -5
8 -10 11 -10 5z"/>
<path d="M436 2008 c3 -5 10 -6 15 -3 13 9 11 12 -6 12 -8 0 -12 -4 -9 -9z"/>
<path d="M575 1910 c7 -23 -10 -27 -19 -4 -3 8 -11 12 -17 9 -7 -5 -4 -13 7
-26 19 -21 23 -22 43 -10 15 9 7 51 -10 51 -6 0 -7 -9 -4 -20z"/>
<path d="M499 1881 c12 -17 30 -31 38 -31 9 0 14 3 11 6 -4 3 -10 5 -13 4 -4
-1 -13 9 -19 21 -6 12 -17 25 -25 27 -9 3 -7 -6 8 -27z"/>
<path d="M4208 563 c-19 -5 -25 -43 -7 -43 6 0 8 7 5 16 -4 12 -2 15 9 10 9
-3 15 0 15 9 0 8 -1 14 -2 14 -2 -1 -11 -3 -20 -6z"/>
<path d="M4095 500 c-8 -13 4 -50 16 -50 5 0 7 11 3 25 -4 16 -2 25 6 25 7 0
10 -6 7 -13 -3 -8 -1 -20 3 -28 7 -11 10 -10 16 4 11 31 -34 64 -51 37z"/>
<path d="M4023 448 c8 -21 21 -34 35 -36 12 -2 22 0 23 5 0 4 2 16 4 26 3 19
0 21 -48 31 l-27 6 13 -32z m47 -8 c0 -5 -4 -10 -9 -10 -6 0 -13 5 -16 10 -3
6 1 10 9 10 9 0 16 -4 16 -10z"/>
<path d="M3991 431 c-10 -7 -11 -13 -2 -30 16 -29 21 -26 18 9 -1 16 -2 30 -2
30 0 0 -6 -4 -14 -9z"/>
<path d="M3950 393 c0 -13 -4 -23 -10 -23 -5 0 -10 5 -10 10 0 6 -4 10 -10 10
-15 0 -12 -16 5 -34 13 -13 20 -13 35 -3 24 14 24 18 5 43 -14 19 -14 18 -15
-3z"/>
<path d="M3860 367 c0 -8 9 -22 19 -31 15 -14 24 -15 38 -7 16 9 16 10 1 11
-10 0 -22 9 -28 20 -12 23 -30 27 -30 7z"/>
<path d="M3870 276 c0 -2 8 -10 18 -17 15 -13 16 -12 3 4 -13 16 -21 21 -21
13z"/>
<path d="M3605 210 c-3 -6 1 -7 9 -4 18 7 21 14 7 14 -6 0 -13 -4 -16 -10z"/>
<path d="M3677 189 c7 -7 15 -10 18 -7 3 3 -2 9 -12 12 -14 6 -15 5 -6 -5z"/>
<path d="M3574 155 c-10 -8 -14 -15 -8 -15 6 0 17 7 24 15 16 19 9 19 -16 0z"/>
<path d="M3678 163 c7 -3 16 -2 19 1 4 3 -2 6 -13 5 -11 0 -14 -3 -6 -6z"/>
<path d="M3615 150 c-3 -5 -1 -10 4 -10 6 0 11 5 11 10 0 6 -2 10 -4 10 -3 0
-8 -4 -11 -10z"/>
</g>
</svg>
